<svg width="93" height="42" viewBox="0 0 93 42" fill="none" xmlns="http://www.w3.org/2000/svg">
<path d="M7.55859 28.7637H18.7559V33H2.28516V7.40625H7.55859V28.7637ZM41.6953 20.7832C41.6953 23.3027 41.25 25.5117 40.3594 27.4102C39.4688 29.3086 38.1914 30.7734 36.5273 31.8047C34.875 32.8359 32.9766 33.3516 30.832 33.3516C28.7109 33.3516 26.8184 32.8418 25.1543 31.8223C23.4902 30.8027 22.2012 29.3496 21.2871 27.4629C20.373 25.5645 19.9102 23.3848 19.8984 20.9238V19.6582C19.8984 17.1387 20.3496 14.9238 21.252 13.0137C22.166 11.0918 23.4492 9.62109 25.1016 8.60156C26.7656 7.57031 28.6641 7.05469 30.7969 7.05469C32.9297 7.05469 34.8223 7.57031 36.4746 8.60156C38.1387 9.62109 39.4219 11.0918 40.3242 13.0137C41.2383 14.9238 41.6953 17.1328 41.6953 19.6406V20.7832ZM36.3516 19.623C36.3516 16.9395 35.8711 14.9004 34.9102 13.5059C33.9492 12.1113 32.5781 11.4141 30.7969 11.4141C29.0273 11.4141 27.6621 12.1055 26.7012 13.4883C25.7402 14.8594 25.2539 16.875 25.2422 19.5352V20.7832C25.2422 23.3965 25.7227 25.4238 26.6836 26.8652C27.6445 28.3066 29.0273 29.0273 30.832 29.0273C32.6016 29.0273 33.9609 28.3359 34.9102 26.9531C35.8594 25.5586 36.3398 23.5312 36.3516 20.8711V19.623ZM65.7773 29.7656C64.8281 30.9023 63.4863 31.7871 61.752 32.4199C60.0176 33.041 58.0957 33.3516 55.9863 33.3516C53.7715 33.3516 51.8262 32.8711 50.1504 31.9102C48.4863 30.9375 47.1973 29.5312 46.2832 27.6914C45.3809 25.8516 44.918 23.6895 44.8945 21.2051V19.4648C44.8945 16.9102 45.3223 14.7012 46.1777 12.8379C47.0449 10.9629 48.2871 9.5332 49.9043 8.54883C51.5332 7.55273 53.4375 7.05469 55.6172 7.05469C58.6523 7.05469 61.0254 7.78125 62.7363 9.23438C64.4473 10.6758 65.4609 12.7793 65.7773 15.5449H60.6445C60.4102 14.0801 59.8887 13.0078 59.0801 12.3281C58.2832 11.6484 57.1816 11.3086 55.7754 11.3086C53.9824 11.3086 52.6172 11.9824 51.6797 13.3301C50.7422 14.6777 50.2676 16.6816 50.2559 19.3418V20.9766C50.2559 23.6602 50.7656 25.6875 51.7852 27.0586C52.8047 28.4297 54.2988 29.1152 56.2676 29.1152C58.248 29.1152 59.6602 28.6934 60.5039 27.8496V23.4375H55.7051V19.5527H65.7773V29.7656ZM91.0898 20.7832C91.0898 23.3027 90.6445 25.5117 89.7539 27.4102C88.8633 29.3086 87.5859 30.7734 85.9219 31.8047C84.2695 32.8359 82.3711 33.3516 80.2266 33.3516C78.1055 33.3516 76.2129 32.8418 74.5488 31.8223C72.8848 30.8027 71.5957 29.3496 70.6816 27.4629C69.7676 25.5645 69.3047 23.3848 69.293 20.9238V19.6582C69.293 17.1387 69.7441 14.9238 70.6465 13.0137C71.5605 11.0918 72.8438 9.62109 74.4961 8.60156C76.1602 7.57031 78.0586 7.05469 80.1914 7.05469C82.3242 7.05469 84.2168 7.57031 85.8691 8.60156C87.5332 9.62109 88.8164 11.0918 89.7188 13.0137C90.6328 14.9238 91.0898 17.1328 91.0898 19.6406V20.7832ZM85.7461 19.623C85.7461 16.9395 85.2656 14.9004 84.3047 13.5059C83.3438 12.1113 81.9727 11.4141 80.1914 11.4141C78.4219 11.4141 77.0566 12.1055 76.0957 13.4883C75.1348 14.8594 74.6484 16.875 74.6367 19.5352V20.7832C74.6367 23.3965 75.1172 25.4238 76.0781 26.8652C77.0391 28.3066 78.4219 29.0273 80.2266 29.0273C81.9961 29.0273 83.3555 28.3359 84.3047 26.9531C85.2539 25.5586 85.7344 23.5312 85.7461 20.8711V19.623Z" fill="white"/>
<rect y="39" width="93" height="3" fill="white"/>
<rect y="39" width="93" height="3" fill="white"/>
<rect y="39" width="93" height="3" fill="white"/>
<rect y="39" width="93" height="3" fill="white"/>
<rect y="39" width="93" height="3" fill="white"/>
<rect width="93" height="3" fill="white"/>
<rect width="93" height="3" fill="white"/>
<rect width="93" height="3" fill="white"/>
<rect width="93" height="3" fill="white"/>
<rect width="93" height="3" fill="white"/>
</svg>
